<svg width="96" height="96" xmlns="http://www.w3.org/2000/svg" xmlns:xlink="http://www.w3.org/1999/xlink" overflow="hidden"><defs><clipPath id="clip0"><rect x="1069" y="305" width="96" height="96"/></clipPath></defs><g clip-path="url(#clip0)" transform="translate(-1069 -305)"><path d="M1143.8 326.8C1141.4 326.8 1139.4 324.8 1139.4 322.4 1139.4 320 1141.4 318 1143.8 318 1146.2 318 1148.2 320 1148.2 322.4L1148.2 322.4C1148.2 324.8 1146.2 326.8 1143.8 326.8 1143.8 326.8 1143.8 326.8 1143.8 326.8ZM1143.8 312C1140.4 312 1137.2 313.7 1135.3 316.5 1133.4 319.3 1133 322.9 1134.2 326.1L1138.9 336.4 1142.9 344.9C1143.2 345.4 1143.8 345.6 1144.2 345.3 1144.4 345.2 1144.5 345.1 1144.6 344.9L1148.6 336.4 1153.3 326.1C1154.5 322.9 1154.1 319.3 1152.2 316.5 1150.4 313.7 1147.2 312 1143.8 312Z"/><path d="M1092.8 366.8C1089.8 366.8 1087.3 364.3 1087.3 361.3 1087.3 358.3 1089.8 355.8 1092.8 355.8 1095.8 355.8 1098.3 358.3 1098.3 361.3 1098.3 361.3 1098.3 361.3 1098.3 361.3 1098.3 364.3 1095.8 366.8 1092.8 366.8 1092.8 366.8 1092.8 366.8 1092.8 366.8L1092.8 366.8ZM1092.8 348.5C1088.6 348.5 1084.6 350.6 1082.2 354.1 1079.8 357.6 1079.3 362.1 1080.9 366L1086.7 378.8 1091.7 389.3C1092 389.9 1092.8 390.1 1093.4 389.8 1093.6 389.7 1093.8 389.5 1093.9 389.3L1098.9 378.8 1104.7 366C1106.2 362.1 1105.7 357.6 1103.4 354.1 1101 350.6 1097 348.5 1092.8 348.5L1092.8 348.5Z"/><path d="M1106.8 390 1104.2 390C1103 390 1101.9 390 1100.8 390L1100.8 384C1101.8 384 1103 384 1104.2 384L1106.8 384 1106.8 390Z"/><path d="M1110.9 390 1110.9 384C1113.1 384 1115 384 1116.8 383.9L1117 389.9C1115.1 390 1113.1 390 1110.9 390Z"/><path d="M1121 389.7 1120.7 383.7C1122.8 383.6 1124.8 383.5 1126.5 383.3L1127.1 389.3C1125.3 389.5 1123.2 389.6 1121 389.7L1121 389.7Z"/><path d="M1131.3 388.8 1130.4 382.9C1132.3 382.6 1134.1 382.3 1135.9 381.8L1137.5 387.6C1135.4 388.1 1133.4 388.5 1131.3 388.8Z"/><path d="M1141.7 386.1 1139.3 380.6C1140.6 380.2 1141.7 379.3 1142.5 378.2L1147.8 381.1C1146.3 383.4 1144.2 385.1 1141.7 386.1L1141.7 386.1Z"/><path d="M1142.6 376.2C1142.4 374.9 1141.8 373.6 1140.9 372.7L1145.1 368.5C1147 370.4 1148.2 372.8 1148.5 375.5L1142.6 376.2Z"/><path d="M1138.4 370.9C1136.8 370.1 1135.1 369.4 1133.4 368.9L1135.1 363.2C1137.2 363.8 1139.3 364.6 1141.2 365.6L1138.4 370.9Z"/><path d="M1129.6 367.9 1128 367.5C1126.6 367.1 1125.1 366.8 1123.7 366.4L1125.3 360.6C1126.6 361 1128 361.3 1129.4 361.7L1131 362.1 1129.6 367.9Z"/><path d="M1119.6 365C1117.2 364.1 1115 362.6 1113.4 360.6L1118.3 357.2C1119.2 358.3 1120.5 359.1 1121.8 359.5L1119.6 365Z"/><path d="M1117.9 355.2 1111.9 354.8C1112.1 351.9 1113.7 349.3 1116 347.6L1119.7 352.3C1117.9 353.8 1117.9 354.9 1117.9 355.2L1117.9 355.2Z"/><path d="M1122.5 350.8 1120.1 345.3C1122.1 344.4 1124.2 343.7 1126.3 343.2L1127.7 349C1125.9 349.5 1124.2 350.1 1122.5 350.8L1122.5 350.8Z"/><path d="M1131.4 348.3 1130.4 342.4C1133 342 1135.2 341.7 1136.6 341.6L1137.1 347.6C1136.1 347.7 1133.9 347.9 1131.4 348.3L1131.4 348.3Z"/></g></svg>